<?xml version="1.0" encoding="UTF-8"?>
<!DOCTYPE svg PUBLIC "-//W3C//DTD SVG 1.1//EN" "http://www.w3.org/Graphics/SVG/1.1/DTD/svg11.dtd">
<svg xmlns="http://www.w3.org/2000/svg" version="1.1" xmlns:xlink="http://www.w3.org/1999/xlink" width="32" height="32">
  <path d="M1,7h30c0.552,0,1-0.448,1-1c0-0.552-0.448-1-1-1H1C0.448,5,0,5.448,0,6C0,6.552,0.448,7,1,7z" fill="#121313" />
  <path d="M31,15H1c-0.552,0-1,0.448-1,1c0,0.552,0.448,1,1,1h30c0.552,0,1-0.448,1-1C32,15.448,31.552,15,31,15z" fill="#121313" />
  <path d="M31,25H1c-0.552,0-1,0.448-1,1c0,0.552,0.448,1,1,1h30c0.552,0,1-0.448,1-1C32,25.448,31.552,25,31,25z" fill="#121313" />
</svg>